<svg xmlns="http://www.w3.org/2000/svg" width="25" height="28" viewBox="0 0 25 28" fill="none">
  <g clip-path="url(#clip0_77_5521)">
    <path d="M11.6746 13.3477L0.103027 25.6306C0.232975 26.0971 0.466495 26.5274 0.785737 26.8885C1.10498 27.2497 1.50149 27.532 1.94496 27.7141C2.38843 27.8962 2.86712 27.9731 3.34443 27.939C3.82175 27.9049 4.28505 27.7607 4.69893 27.5174L17.7191 20.0045L11.6746 13.3477Z" fill="#EA4335"/>
    <path d="M23.3753 11.2615L17.7449 7.99414L11.4072 13.6288L17.7707 19.9886L23.3582 16.7563C23.8532 16.4937 24.2678 16.0988 24.5571 15.6145C24.8464 15.1302 24.9993 14.5749 24.9993 14.0088C24.9993 13.4428 24.8464 12.8875 24.5571 12.4032C24.2678 11.9189 23.8532 11.524 23.3582 11.2614L23.3753 11.2615Z" fill="#FBBC04"/>
    <path d="M0.103058 2.32422C0.0331546 2.5862 -0.00166256 2.85652 -0.00045807 3.12791V24.8281C0.000232172 25.0994 0.0350171 25.3695 0.103058 25.6319L12.0713 13.6635L0.103058 2.32422Z" fill="#4285F4"/>
    <path d="M11.7608 13.9774L17.745 7.99322L4.74209 0.445288C4.25286 0.155019 3.69644 0.00129197 3.12949 -0.000238073C1.72256 -0.00300839 0.485644 0.943055 0.103027 2.31486L11.7608 13.9774Z" fill="#34A853"/>
  </g>
  <defs>
    <clipPath id="clip0_77_5521">
      <rect width="25" height="28" fill="white"/>
    </clipPath>
  </defs>
</svg>