<svg xmlns="http://www.w3.org/2000/svg" width="30" height="30" viewBox="0 0 30 30" fill="none">
  <g clip-path="url(#clip0_77_5517)">
    <path d="M6.57 0H23.43C27.0586 0 30 2.94141 30 6.57V23.43C30 27.0586 27.0586 30 23.43 30H6.57C2.94141 30 0 27.0586 0 23.43V6.57C0 2.94141 2.94141 0 6.57 0Z" fill="url(#paint0_linear_77_5517)"/>
    <path d="M9.61416 21.7755L9.61697 21.7765L8.59123 23.553C8.21682 24.2015 7.3876 24.4237 6.73908 24.0493C6.09057 23.6749 5.86838 22.8457 6.24279 22.1972L6.99842 20.8884L7.07096 20.7628C7.20045 20.5767 7.52002 20.2554 8.15928 20.3158C8.15928 20.3158 9.66361 20.4791 9.77248 21.261C9.77248 21.261 9.78725 21.5182 9.61416 21.7755ZM24.1622 17.238H20.9637C20.7458 17.2234 20.6508 17.1456 20.6133 17.1003L20.6109 17.0962L17.1871 11.1658L17.1826 11.1688L16.9773 10.8744C16.6407 10.3597 16.1063 11.676 16.1063 11.676C15.4683 13.1427 16.1969 14.8101 16.4509 15.3142L21.2066 23.5513C21.5809 24.1997 22.4101 24.422 23.0587 24.0474C23.7071 23.673 23.9294 22.8438 23.5549 22.1953L22.3658 20.1356C22.3427 20.0857 22.3026 19.9502 22.5465 19.9496H24.1622C24.911 19.9496 25.518 19.3426 25.518 18.5938C25.518 17.8449 24.911 17.238 24.1622 17.238ZM17.9496 19.081C17.9496 19.081 18.1203 19.9495 17.4597 19.9495H5.63564C4.88682 19.9495 4.27979 19.3425 4.27979 18.5937C4.27979 17.8448 4.88682 17.2378 5.63564 17.2378H8.67549C9.16627 17.2094 9.28252 16.9261 9.28252 16.9261L9.28533 16.9275L13.2533 10.0547L13.2521 10.0544C13.3244 9.92166 13.2642 9.79615 13.2538 9.77635L11.9433 7.50654C11.5688 6.85815 11.791 6.02881 12.4396 5.65451C13.0881 5.28022 13.9173 5.50217 14.2917 6.15069L14.8994 7.20338L15.5061 6.15256C15.8805 5.50416 16.7097 5.28186 17.3583 5.65639C18.0068 6.03092 18.229 6.8599 17.8546 7.50842L12.3329 17.0721C12.3088 17.1303 12.3014 17.2217 12.481 17.2378H15.7815L15.7822 17.27C15.7822 17.27 17.6898 17.2997 17.9496 19.081Z" fill="white"/>
  </g>
  <defs>
    <linearGradient id="paint0_linear_77_5517" x1="1500" y1="0" x2="1500" y2="3000" gradientUnits="userSpaceOnUse">
      <stop stop-color="#17C9FB"/>
      <stop offset="1" stop-color="#1A74E8"/>
    </linearGradient>
    <clipPath id="clip0_77_5517">
      <rect width="30" height="30" fill="white"/>
    </clipPath>
  </defs>
</svg>